<svg xmlns="http://www.w3.org/2000/svg" viewBox="0 0 760 300" role="img" aria-labelledby="title"><title>DJ KARIKA Party Planning</title><defs><linearGradient id="g" x1="0" x2="1"><stop stop-color="#e2a451"/><stop offset="1" stop-color="#ffd18b"/></linearGradient></defs><g fill="none" stroke="url(#g)" stroke-width="18" stroke-linecap="round" stroke-linejoin="round"><path d="M50 82h70v30c0 18 12 30 30 30s30-12 30-30V62c0-18 12-30 30-30s30 12 30 30v100c0 18 12 30 30 30s30-12 30-30V22c0-18 12-30 30-30s30 12 30 30v140"/><path d="M380 0v140l54-60M380 118l56 58M448 0v176"/><path d="M505 22c0-18 12-30 30-30s30 12 30 30v140c0 18 12 30 30 30s30-12 30-30V62c0-18 12-30 30-30s30 12 30 30v50c0 18 12 30 30 30s30-12 30-30V82h70"/></g><circle cx="409" cy="100" r="10" fill="#ffd18b"/><text x="380" y="235" fill="url(#g)" text-anchor="middle" font-family="Montserrat,Arial,sans-serif" font-weight="900" font-size="79" letter-spacing="11">KARIKA</text><text x="380" y="275" fill="#eab464" text-anchor="middle" font-family="Montserrat,Arial,sans-serif" font-weight="800" font-size="24" letter-spacing="8">PARTY PLANNING</text></svg>